<svg width="45" height="45" viewBox="0 0 45 45" fill="none" xmlns="http://www.w3.org/2000/svg">
<path d="M27.625 13.6232C34.4583 17.5685 34.4583 27.4315 27.625 31.3768C20.7917 35.322 12.25 30.3905 12.25 22.5C12.25 14.6095 20.7917 9.67801 27.625 13.6232Z" stroke="#F9FAFB" stroke-width="2"/>
<path d="M13.5971 13.797C12.8708 11.5073 14.1838 9.23305 16.53 8.71726C18.8761 8.20147 21.3668 9.63951 22.0932 11.9292L24.0533 23.1955C24.7797 25.4852 24.6216 26.3124 22.2754 26.8282C19.9293 27.344 19.1165 26.1588 18.3901 23.8691L13.5971" fill="#F9FAFB"/>
<path d="M34.3214 23.0128C36.7164 23.711 38.217 26.0935 37.673 28.3343C37.129 30.5751 34.7464 31.8257 32.3514 31.1276L21.6656 26.4761C19.2706 25.7779 18.1852 25.0528 18.7292 22.812C19.2732 20.5712 19.9455 20.3286 22.3405 21.0268L28.331 22.0198L34.3214" fill="#F9FAFB"/>
<path d="M17.6015 34.3703C15.9329 35.9618 13.1193 35.8536 11.3172 34.1285C9.51506 32.4035 9.40683 29.7149 11.0754 28.1233L19.6718 22.6491C21.3404 21.0575 21.9353 21.1626 23.7374 22.8876C25.5395 24.6127 24.6014 24.0981 22.9327 25.6897L17.6015" fill="#F9FAFB"/>
</svg>
